<?xml version="1.0" encoding="UTF-8" standalone="no"?>
<!DOCTYPE svg PUBLIC "-//W3C//DTD SVG 1.1//EN"
 "http://www.w3.org/Graphics/SVG/1.1/DTD/svg11.dtd">
<!-- Generated by graphviz version 8.1.0 (20230707.0739)
 -->
<!-- Title: G Pages: 1 -->
<svg width="568pt" height="134pt"
 viewBox="0.00 0.00 568.20 134.20" xmlns="http://www.w3.org/2000/svg" xmlns:xlink="http://www.w3.org/1999/xlink">
<g id="graph0" class="graph" transform="scale(1 1) rotate(0) translate(21.6 112.6)">
<title>G</title>
<polygon fill="#ffffff" stroke="none" points="-21.6,21.6 -21.6,-112.6 546.6,-112.6 546.6,21.6 -21.6,21.6"/>
<g id="clust1" class="cluster">
<title>cluster_variables</title>
<polygon fill="#ffffff" stroke="black" stroke-dasharray="1,5" points="8,-8 8,-83 307,-83 307,-8 8,-8"/>
<text text-anchor="middle" x="44.12" y="-13.7" font-family="Helvetica,sans-Serif" font-size="14.00">Variables</text>
</g>
<g id="clust3" class="cluster">
<title>cluster_resources</title>
<polygon fill="#ffffff" stroke="black" stroke-dasharray="1,5" points="315,-8 315,-83 517,-83 517,-8 315,-8"/>
<text text-anchor="middle" x="355.25" y="-13.7" font-family="Helvetica,sans-Serif" font-size="14.00">Resources</text>
</g>
<!-- [root] var.region -->
<g id="node1" class="node">
<title>[root] var.region</title>
<polygon fill="none" stroke="black" stroke-width="2" points="292.6,-75 219.4,-75 219.4,-39 298.6,-39 298.6,-69 292.6,-75"/>
<polyline fill="none" stroke="black" stroke-width="2" points="292.6,-75 292.6,-69"/>
<polyline fill="none" stroke="black" stroke-width="2" points="298.6,-69 292.6,-69"/>
<text text-anchor="middle" x="259" y="-51.98" font-family="Helvetica,sans-Serif" font-size="12.00" fill="#646365">var.region</text>
</g>
<!-- [root] var.tags -->
<g id="node2" class="node">
<title>[root] var.tags</title>
<polygon fill="none" stroke="black" stroke-width="2" points="195.6,-75 122.4,-75 122.4,-39 201.6,-39 201.6,-69 195.6,-75"/>
<polyline fill="none" stroke="black" stroke-width="2" points="195.6,-75 195.6,-69"/>
<polyline fill="none" stroke="black" stroke-width="2" points="201.6,-69 195.6,-69"/>
<text text-anchor="middle" x="162" y="-51.98" font-family="Helvetica,sans-Serif" font-size="12.00" fill="#646365">var.tags</text>
</g>
<!-- [root] var.username -->
<g id="node3" class="node">
<title>[root] var.username</title>
<polygon fill="none" stroke="black" stroke-width="2" points="98.38,-75 15.62,-75 15.62,-39 104.38,-39 104.38,-69 98.38,-75"/>
<polyline fill="none" stroke="black" stroke-width="2" points="98.38,-75 98.38,-69"/>
<polyline fill="none" stroke="black" stroke-width="2" points="104.38,-69 98.38,-69"/>
<text text-anchor="middle" x="60" y="-51.98" font-family="Helvetica,sans-Serif" font-size="12.00" fill="#646365">var.username</text>
</g>
<!-- [root] data.ibm_resource_group.group (expand) -->
<g id="node4" class="node">
<title>[root] data.ibm_resource_group.group (expand)</title>
<polygon fill="none" stroke="black" stroke-width="2" points="509.12,-75 322.88,-75 322.88,-39 509.12,-39 509.12,-75"/>
<text text-anchor="middle" x="416" y="-51.98" font-family="Helvetica,sans-Serif" font-size="12.00" fill="#646365">data.ibm_resource_group.group</text>
</g>
</g>
</svg>
